<svg width="90" height="64" viewBox="0 0 90 64" fill="none" xmlns="http://www.w3.org/2000/svg">
<path fill-rule="evenodd" clip-rule="evenodd" d="M28.5603 11.1858V4.31963H16.8262V20.9867C16.8262 21.2082 14.9443 22.6479 14.7783 22.814C14.3908 23.1463 14.0587 23.3678 13.7267 23.7C13.3392 24.0322 13.0071 24.2537 12.6197 24.586C11.9555 25.2504 11.2359 25.7488 10.5164 26.3579L6.30983 29.9017C6.14378 30.0678 5.97773 30.2339 5.81169 30.3447L0.276747 34.996C0.110699 35.1621 0.110699 35.1067 0 35.2728H16.8262V62.9037H29.9994C30.1654 62.9037 30.1654 62.7929 30.2761 62.6268C30.3315 62.4607 30.3868 62.4053 30.4422 62.2392C30.6082 62.0177 30.7189 61.7962 30.885 61.5747L33.265 57.3111C33.4864 57.4218 34.7041 59.8028 34.8701 60.0797L36.4753 62.9037H41.0139C41.0139 62.4607 35.645 53.4904 35.645 53.1581C35.645 53.0474 36.8073 51.054 36.9734 50.7771C37.4162 49.8912 37.859 49.1159 38.3571 48.2854L40.7372 44.0771C40.8479 43.8556 40.9586 43.6341 41.0693 43.468H36.5306L34.0952 47.6763C33.9292 48.0085 33.431 48.7283 33.3203 49.1159L33.0989 48.7837C32.158 47.0118 30.9957 45.1845 30.0547 43.4126H25.5714C25.5714 43.5787 25.6821 43.7448 25.7928 43.9109L28.3389 48.4515C28.5049 48.7837 28.7263 49.1159 28.8924 49.4482L30.0547 51.497C30.3315 51.9953 30.6636 52.4937 30.885 52.992C31.051 53.3243 30.4422 54.0995 30.2208 54.5424L27.6193 59.083C27.5086 59.2491 27.4533 59.526 27.2873 59.526H20.0918V31.8951H9.188C9.46475 31.5075 13.2285 28.5174 13.948 27.8529C14.2248 27.6314 14.4462 27.4653 14.6676 27.2438L19.483 23.257C19.5937 23.1463 20.0918 22.7587 20.0918 22.5925V7.64198H25.184V18.3842L34.538 10.5767C34.7041 10.466 34.8701 10.2999 35.0362 10.1891C35.2022 10.023 35.3683 9.85688 35.5343 9.74613C36.8073 8.69406 38.4678 7.199 39.7409 6.2023C39.9069 6.09155 40.0176 5.98081 40.239 5.81469C40.4051 5.64857 40.5711 5.48246 40.7372 5.37171C40.9032 5.20559 41.0693 5.09485 41.2907 4.92873C41.4567 4.76261 41.6227 4.65187 41.7888 4.43038C42.2316 4.65187 43.2832 5.64857 43.726 6.03618L47.6005 9.30315C47.7112 9.4139 47.7665 9.4139 47.8219 9.46927L48.5968 10.0784C49.9805 11.2966 52.4712 13.29 53.6889 14.3974C53.7996 14.5082 53.7996 14.5082 53.9103 14.6189C54.1317 14.7297 54.2424 14.8404 54.4085 15.0065L56.3457 16.6123C56.5117 16.7784 56.6778 16.8892 56.8438 17.0553C56.9545 17.1107 57.2866 17.4429 57.3973 17.4429H84.906C85.1274 17.4429 85.072 17.3322 85.0167 17.166L84.7399 15.8371C84.6292 15.3388 84.4632 14.4528 84.2971 14.0652H59.6666C57.9508 14.0652 58.7257 14.1206 57.2313 12.9577L56.7331 12.5701C56.5671 12.4594 56.4564 12.3486 56.2903 12.1825L55.5708 11.5734C53.855 10.0784 52.0838 8.63868 50.3126 7.199L47.6558 4.9841C47.5451 4.87336 47.5451 4.87336 47.4344 4.76261L42.1209 0.332818C42.0102 0.222073 42.0102 0.166701 41.8995 0.111328C41.5674 0.166701 41.2907 0.554308 41.0693 0.775797L39.4088 2.10474C39.2427 2.27085 39.132 2.32623 38.966 2.49234L33.8185 6.81139C32.6008 7.8081 31.4938 8.86017 30.2761 9.80151L29.0031 10.8536C28.8924 10.9643 28.671 11.1304 28.5603 11.1858V11.1858ZM49.427 47.0672C49.5931 47.1779 49.7038 47.8424 49.7038 48.0639L51.3642 55.9268H47.5451L49.427 47.0672V47.0672ZM64.0393 58.4185C64.0393 59.083 63.4858 59.526 62.7662 59.5813C61.9913 59.6367 60.995 59.5813 60.2201 59.5813L60.995 62.9591C63.4858 62.9591 65.1462 62.9591 67.0281 61.464C67.3602 61.1871 67.5263 61.021 67.7477 60.6888C67.9137 60.4673 68.0244 60.3012 68.1351 60.0797C68.4119 59.6367 68.6333 59.1384 68.7993 58.6954L69.7402 55.5945C70.4598 53.5457 71.0686 51.5523 71.7328 49.5036C71.8435 49.1713 73.6701 43.6894 73.6701 43.4126H69.076L66.696 51.9399C66.5853 52.2168 66.3639 52.9366 66.3639 53.2135L65.3123 50.7771C64.9802 49.9465 64.6481 49.1713 64.316 48.3407L62.8769 44.6308C62.7662 44.4093 62.7109 44.1878 62.6555 44.0217C62.5448 43.8002 62.4341 43.5787 62.4341 43.4126H58.0615C58.1722 43.7448 58.615 44.8523 58.7811 45.2952C59.0578 45.9043 59.2792 46.5134 59.556 47.1779L64.0393 58.4185V58.4185ZM75.1645 47.6763V58.5846C75.1645 60.0797 75.9947 61.3533 77.1571 62.0731C79.3157 63.4574 83.799 63.4574 86.1237 62.0731C86.6218 61.7409 87.1753 61.2425 87.5074 60.6888C88.3376 59.1937 88.1162 57.754 88.1162 55.8714H84.0204C84.0204 57.6433 84.4078 59.8582 82.1385 59.8582C80.7548 59.8582 79.4817 59.8028 79.4817 57.8648V48.3961C79.4817 46.8457 80.312 46.3473 81.9171 46.3473C84.2971 46.3473 84.0204 48.1746 84.0204 49.6697H88.1162C88.1162 47.4548 88.3376 45.6829 86.1237 44.2432C85.1827 43.5787 84.1311 43.4126 83.0241 43.2465C82.4706 43.1911 80.9208 43.1357 80.3673 43.2465C78.7068 43.468 77.1571 43.8556 76.1054 45.1291C75.6073 45.6829 75.1645 46.7349 75.1645 47.6763V47.6763ZM42.0655 62.9037H46.0507L46.7702 59.6921C46.7702 59.526 46.7702 59.3598 46.9916 59.3598H52.1945L52.5266 61.0764C52.6373 61.6855 52.8033 62.2946 52.914 62.9037H57.342L56.7331 60.1904C56.6778 59.9136 56.5671 59.4706 56.5117 59.2491H57.7848L57.0099 55.9268H55.7922L53.2461 45.0184C53.1908 44.7415 53.1354 44.4647 53.0801 44.1878C53.0247 44.0217 52.914 43.6341 52.914 43.4126H46.6595C46.4381 43.4126 46.4381 43.6894 46.3828 43.9109C45.9954 45.9597 45.2758 48.4515 44.833 50.611C44.667 51.3862 44.4456 52.2168 44.2795 53.0474L42.3423 61.6301C42.2869 61.7962 42.2316 62.0177 42.1762 62.2392C42.1762 62.4607 42.0655 62.6822 42.0655 62.9037V62.9037Z" fill="#EF7D00"/>
<path fill-rule="evenodd" clip-rule="evenodd" d="M58.0061 20.8759V40.2009H62.4341V36.7125H67.3048V40.2009H71.5667C71.6774 40.2009 71.7328 40.1455 71.7328 40.0348V20.8759C71.7328 20.7098 71.6774 20.7098 71.5667 20.7098H67.3048V33.3901H62.4341V20.8759C62.4341 20.7098 62.3787 20.7098 62.2127 20.7098H58.1722C58.0615 20.7098 58.0061 20.7098 58.0061 20.8759V20.8759ZM41.6781 40.1455H45.9953V34.2207C45.9953 34.11 46.4934 33.5009 46.6041 33.3901C46.7702 33.1686 47.213 32.6149 47.2683 32.4488C47.4897 32.6149 47.4344 32.6703 47.5451 32.8918L48.8735 35.3281C49.2056 35.9926 51.4195 39.8687 51.4749 40.1455H56.0135C55.9582 39.9241 55.4601 39.0381 55.294 38.7612C54.2977 37.1001 53.2461 35.1067 52.3051 33.4455L49.9805 29.4033C50.9767 27.9082 51.973 26.5239 52.9693 25.0842L54.4084 22.8693C54.6852 22.4817 54.9066 22.2049 55.1833 21.8173C55.4047 21.4297 55.6815 21.0421 55.9028 20.7098H51.4749C51.4195 20.8759 51.0321 21.4297 50.866 21.7065C50.5893 22.0388 50.3679 22.3156 50.1465 22.6479C49.7037 23.3677 49.2609 23.9768 48.7628 24.6413L45.9953 28.6281V20.7098H41.6781V40.1455ZM81.1975 24.309C81.1975 24.5859 81.3636 25.1396 81.4189 25.4165C81.5296 25.8041 81.6403 26.2471 81.6957 26.5793C81.8617 27.3545 82.0278 28.1297 82.2492 28.9049L83.2454 33.4455H79.0942C79.7584 30.6769 80.3673 27.6314 81.0315 24.8628C81.0868 24.752 81.0868 24.752 81.0868 24.5859L81.1975 24.309V24.309ZM73.7807 40.2009H77.7659C78.0426 39.0381 78.264 37.8753 78.5407 36.7678H83.9096C83.9096 37.1001 84.5738 40.0902 84.6292 40.2009H89.0571L88.2269 36.7678H89.4999L88.7804 33.4455H87.5074L86.4004 28.6281C86.2897 28.1297 86.179 27.576 86.0129 27.0223L84.6845 20.9867C84.6292 20.8206 84.6845 20.7098 84.4631 20.7098H78.3747C78.1533 20.7098 78.1533 20.9867 78.098 21.1528L77.1017 25.4718C76.7696 27.133 76.3821 28.6835 75.9947 30.3446L74.0575 38.9274C73.9468 39.2042 73.7807 39.8687 73.7807 40.2009V40.2009ZM32.4347 37.2108C31.4938 37.2108 30.4421 37.1554 30.0547 36.1034C29.9993 35.8265 29.944 35.5496 29.944 35.2174V25.6933C29.944 24.9181 30.11 24.4751 30.5528 24.1429C31.3277 23.4784 33.2096 23.5338 33.9291 24.1983C34.3719 24.5859 34.4826 25.195 34.4826 25.9702V35.0513C34.4826 36.3802 33.8738 37.2108 32.4347 37.2108V37.2108ZM25.5714 25.8595C25.5714 27.4653 25.4607 35.4943 25.6821 36.5463C26.2909 39.4811 29.1137 40.4224 32.158 40.4224C33.9291 40.4224 35.7003 40.0348 36.752 39.3703C37.9143 38.5951 38.7999 37.4323 38.7999 35.8265V25.0289C38.7999 24.2537 38.5231 23.5338 38.191 22.9801C37.1948 21.2635 34.9254 20.5437 32.8221 20.5437C30.7189 20.5437 28.837 20.5991 27.2319 21.8173C25.9035 22.814 25.5714 24.1429 25.5714 25.8595V25.8595Z" fill="#434343"/>
</svg>
