<svg width="31" height="39" viewBox="0 0 31 39" fill="none" xmlns="http://www.w3.org/2000/svg">
<path fill-rule="evenodd" clip-rule="evenodd" d="M15.1236 0.810303C23.3054 0.810303 30.5781 7.17394 30.5781 15.3558C30.5781 23.5376 19.669 38.9921 15.1236 38.9921C11.4872 38.9921 0.578125 23.5376 0.578125 15.3558C0.578125 7.17394 6.94176 0.810303 15.1236 0.810303V0.810303Z" fill="#4B67AF"/>
<path d="M15.1236 28.083C21.6506 28.083 26.9418 22.7918 26.9418 16.2648C26.9418 9.73783 21.6506 4.44666 15.1236 4.44666C8.5966 4.44666 3.30542 9.73783 3.30542 16.2648C3.30542 22.7918 8.5966 28.083 15.1236 28.083Z" fill="#FEFEFE"/>
<path fill-rule="evenodd" clip-rule="evenodd" d="M22.3964 12.6285H16.9418L13.3054 9.90125L10.5782 11.7194V10.8103H8.75999V13.5376L6.03271 15.3558H8.75999V21.7194H22.3964V15.3558H25.1236L22.3964 12.6285V12.6285ZM16.9418 15.3558H21.4873V20.8103H16.9418V15.3558ZM13.3054 11.7194L16.9418 14.4467H9.66908L13.3054 11.7194ZM10.5782 15.3558H16.0327V20.8103H10.5782V15.3558Z" fill="#EF7F1A"/>
<path fill-rule="evenodd" clip-rule="evenodd" d="M22.3964 12.6285H16.9418L13.3054 9.90125L10.5782 11.7194V10.8103H8.75999V13.5376L6.03271 15.3558H22.3964H25.1236L22.3964 12.6285V12.6285ZM13.3054 11.7194L16.9418 14.4467H9.66908L13.3054 11.7194V11.7194Z" fill="#5B5B5B"/>
</svg>
